<svg width="68" height="76" viewBox="0 0 68 76" fill="none" xmlns="http://www.w3.org/2000/svg">
<path d="M1.23225 4.24998L7.86413 63.5378C8.09951 65.6383 9.4863 67.3837 11.3827 67.9655L32.6578 74.4871C33.5181 74.7505 34.4292 74.757 35.2931 74.5041L57.6687 67.9576C59.627 67.385 61.0526 65.5767 61.254 63.4094L66.7733 4.19888C66.9177 2.65136 65.7857 1.30957 64.3358 1.30957H3.6637C2.19561 1.30957 1.05632 2.68674 1.23225 4.24998Z" fill="#7BBEEB"/>
<path d="M64.3358 1.30957H33.9731V74.6889C34.4171 74.6915 34.8612 74.6299 35.2932 74.5041L57.6687 67.9576C59.627 67.385 61.0526 65.5767 61.254 63.4094L66.7733 4.19888C66.9177 2.65136 65.7857 1.30957 64.3358 1.30957Z" fill="#ACE3FF"/>
<path d="M34.0034 76C33.4392 76 32.8738 75.9161 32.3254 75.7484L11.0503 69.2268C8.67827 68.4996 6.95418 66.3297 6.65813 63.6959L0.0262564 4.408C-0.0987131 3.29421 0.226451 2.17386 0.915603 1.33262C1.61203 0.486138 2.613 0 3.66493 0H64.337C65.3732 0 66.3656 0.474345 67.0596 1.30379C67.7476 2.12669 68.0849 3.23 67.9817 4.332L62.4612 63.5426C62.2089 66.2314 60.4108 68.514 57.9842 69.2216L35.611 75.7681C35.0844 75.9227 34.5445 76 34.0034 76ZM3.66493 2.62069C3.30216 2.62069 2.97093 2.78055 2.73312 3.07145C2.50017 3.35579 2.39461 3.71876 2.43708 4.09352L9.06895 63.3814C9.24609 64.963 10.2847 66.2681 11.7139 66.7057L32.9903 73.2273C33.6394 73.4252 34.3249 73.4304 34.9765 73.2404L57.3508 66.6939C58.8129 66.2668 59.8976 64.8948 60.048 63.2805L65.5673 4.06862C65.6013 3.69779 65.4921 3.34007 65.2603 3.06097C65.0213 2.77662 64.6925 2.62069 64.3358 2.62069H3.66493Z" fill="#8D6C9F"/>
<path d="M3.64066 10.4836C2.96971 10.4836 2.42737 9.89784 2.42737 9.17322V6.55253C2.42737 5.82791 2.96971 5.24219 3.64066 5.24219C4.31162 5.24219 4.85396 5.82791 4.85396 6.55253V9.17322C4.85396 9.89784 4.31162 10.4836 3.64066 10.4836ZM9.70714 10.4836C9.03619 10.4836 8.49385 9.89784 8.49385 9.17322V6.55253C8.49385 5.82791 9.03619 5.24219 9.70714 5.24219C10.3781 5.24219 10.9204 5.82791 10.9204 6.55253V9.17322C10.9204 9.89784 10.3781 10.4836 9.70714 10.4836ZM15.7736 10.4836C15.1027 10.4836 14.5603 9.89784 14.5603 9.17322V6.55253C14.5603 5.82791 15.1027 5.24219 15.7736 5.24219C16.4446 5.24219 16.9869 5.82791 16.9869 6.55253V9.17322C16.9869 9.89784 16.4446 10.4836 15.7736 10.4836ZM21.8401 10.4836C21.1691 10.4836 20.6268 9.89784 20.6268 9.17322V6.55253C20.6268 5.82791 21.1691 5.24219 21.8401 5.24219C22.5111 5.24219 23.0534 5.82791 23.0534 6.55253V9.17322C23.0534 9.89784 22.5111 10.4836 21.8401 10.4836ZM27.9066 10.4836C27.2356 10.4836 26.6933 9.89784 26.6933 9.17322V6.55253C26.6933 5.82791 27.2356 5.24219 27.9066 5.24219C28.5775 5.24219 29.1199 5.82791 29.1199 6.55253V9.17322C29.1199 9.89784 28.5775 10.4836 27.9066 10.4836ZM33.9731 10.4836C33.3021 10.4836 32.7598 9.89784 32.7598 9.17322V6.55253C32.7598 5.82791 33.3021 5.24219 33.9731 5.24219C34.644 5.24219 35.1864 5.82791 35.1864 6.55253V9.17322C35.1864 9.89784 34.644 10.4836 33.9731 10.4836ZM40.0395 10.4836C39.3686 10.4836 38.8262 9.89784 38.8262 9.17322V6.55253C38.8262 5.82791 39.3686 5.24219 40.0395 5.24219C40.7105 5.24219 41.2528 5.82791 41.2528 6.55253V9.17322C41.2528 9.89784 40.7105 10.4836 40.0395 10.4836ZM46.106 10.4836C45.4351 10.4836 44.8927 9.89784 44.8927 9.17322V6.55253C44.8927 5.82791 45.4351 5.24219 46.106 5.24219C46.777 5.24219 47.3193 5.82791 47.3193 6.55253V9.17322C47.3193 9.89784 46.777 10.4836 46.106 10.4836ZM52.1725 10.4836C51.5015 10.4836 50.9592 9.89784 50.9592 9.17322V6.55253C50.9592 5.82791 51.5015 5.24219 52.1725 5.24219C52.8434 5.24219 53.3858 5.82791 53.3858 6.55253V9.17322C53.3858 9.89784 52.8434 10.4836 52.1725 10.4836ZM58.239 10.4836C57.568 10.4836 57.0257 9.89784 57.0257 9.17322V6.55253C57.0257 5.82791 57.568 5.24219 58.239 5.24219C58.9099 5.24219 59.4523 5.82791 59.4523 6.55253V9.17322C59.4523 9.89784 58.9099 10.4836 58.239 10.4836ZM64.3055 10.4836C63.6345 10.4836 63.0922 9.89784 63.0922 9.17322V6.55253C63.0922 5.82791 63.6345 5.24219 64.3055 5.24219C64.9764 5.24219 65.5188 5.82791 65.5188 6.55253V9.17322C65.5188 9.89784 64.9764 10.4836 64.3055 10.4836ZM43.6782 66.5742C43.1444 66.5742 42.6542 66.1903 42.5086 65.6072C42.3327 64.9087 42.7149 64.1894 43.3615 63.9994L45.7881 63.2892C46.436 63.0978 47.1021 63.5119 47.2768 64.2103C47.4528 64.9087 47.0706 65.6281 46.4239 65.8181L43.9973 66.5283C43.8905 66.5598 43.7838 66.5742 43.6782 66.5742ZM34.0022 69.453L27.5741 67.4823C26.9299 67.2857 26.555 66.5598 26.7394 65.864C26.9214 65.1682 27.5899 64.7607 28.2378 64.9625L34.0167 66.7341L38.5084 65.4211C39.1563 65.2272 39.8224 65.6438 39.9971 66.3423C40.173 67.0407 39.7908 67.7614 39.1441 67.95L34.0022 69.453Z" fill="#8D6C9F"/>
<path d="M13.9537 34.0679L15.4558 37.0319L18.2002 38.6541L15.4558 40.2763L13.9537 43.2403L12.4516 40.2763L9.70715 38.6541L12.4516 37.0319L13.9537 34.0679ZM52.7816 56.3438L53.8444 58.4534L55.8124 59.6223L53.8444 60.7701L52.7816 62.8955L51.6993 60.7701L49.7459 59.6223L51.6993 58.4534L52.7816 56.3438ZM58.8505 24.8955L59.4948 26.1561L60.6656 26.8584L59.4935 27.5516L58.8505 28.8265L58.1977 27.5516L57.0257 26.8584L58.1977 26.1561L58.8505 24.8955Z" fill="#FFF8F8"/>
<path d="M52.1943 17.0342H15.7736C15.0286 17.0342 14.4596 17.7522 14.5761 18.5476L15.5018 24.8962H45.3465L44.4863 32.7583H25.48V40.6204H43.626L42.5328 50.6118L34.0871 53.3923L26.629 50.6642L26.0903 46.9677C25.9968 46.3309 25.4885 45.8618 24.8915 45.8618H19.9789C19.2339 45.8618 18.6649 46.5811 18.7802 47.3765L20.0104 55.8138C20.0796 56.2882 20.3866 56.6826 20.8088 56.8359L33.6127 61.5191C33.7352 61.5636 33.8614 61.5859 33.9888 61.5859C34.1041 61.5859 34.2193 61.5676 34.331 61.5309L48.4574 56.8818C48.9111 56.7324 49.2412 56.3065 49.2958 55.7981L52.8034 23.7405L53.3797 18.4742C53.4634 17.7077 52.909 17.0342 52.1943 17.0342Z" fill="#FAEFDE"/>
<path d="M33.9901 62.897C33.7341 62.897 33.4793 62.8525 33.233 62.7634L20.4206 58.0776C19.57 57.7683 18.9537 56.9795 18.813 56.0203L17.5815 47.5804C17.471 46.823 17.6725 46.0539 18.1335 45.4707C18.5958 44.8876 19.2679 44.5535 19.9789 44.5535H24.8928C26.0952 44.5535 27.1034 45.4852 27.2903 46.768L27.7149 49.6796L34.109 52.0172L41.4239 49.6101L42.2611 41.9315H25.48C24.8091 41.9315 24.2667 41.3458 24.2667 40.6212V32.7591C24.2667 32.0345 24.8091 31.4487 25.48 31.4487H43.4077L43.9816 26.2074H15.5007C14.9037 26.2074 14.3953 25.7383 14.3019 25.1001L13.3762 18.7502C13.2658 17.9941 13.4672 17.225 13.9282 16.6419C14.3905 16.0587 15.0627 15.7246 15.7736 15.7246H52.1956C52.8823 15.7246 53.5375 16.043 53.9949 16.5973C54.4499 17.1516 54.6658 17.8919 54.5846 18.6296L50.5018 55.9509C50.389 56.9756 49.7265 57.8339 48.8117 58.1339L34.6853 62.7856C34.4608 62.8603 34.2267 62.897 33.9901 62.897ZM19.9789 47.1729L21.2104 55.6102L34.0022 60.279L48.1043 55.6272L52.1725 18.3453H15.7736L16.538 23.5867H45.3465C45.6935 23.5867 46.0235 23.7465 46.2528 24.027C46.4834 24.3061 46.5914 24.6795 46.5513 25.0503L45.6911 32.9124C45.6195 33.5728 45.1014 34.0694 44.4863 34.0694H26.6933V39.3108H43.6261C43.9719 39.3108 44.3031 39.4707 44.5324 39.7511C44.7629 40.0302 44.8709 40.4036 44.8309 40.7745L43.7389 50.7659C43.6819 51.2834 43.3482 51.7145 42.8884 51.8652L34.4426 54.6458C34.1988 54.727 33.9391 54.7231 33.7001 54.634L26.242 51.9058C25.8137 51.7499 25.5031 51.3503 25.4315 50.8681L24.8916 47.1729H19.9789Z" fill="#8D6C9F"/>
</svg>
