<svg width="68" height="76" viewBox="0 0 68 76" fill="none" xmlns="http://www.w3.org/2000/svg">
<path d="M0 76V0H68V76H0Z" fill="#FFD600"/>
<path d="M44.4607 56.8877C45.7678 59.2606 47.1883 61.5342 50.1973 61.5342C52.7246 61.5342 54.0506 60.1303 54.0506 58.1881C54.0506 55.8638 52.6793 55.0383 49.8988 53.6851L48.3745 52.9589C43.9753 50.8731 41.0494 48.2596 41.0494 42.739C41.0494 37.6512 44.5344 33.7795 49.98 33.7795C53.8579 33.7795 56.644 35.2805 58.6538 39.2113L53.9051 42.6039C52.8606 40.5181 51.731 39.6969 49.98 39.6969C48.1931 39.6969 47.0617 40.9572 47.0617 42.6039C47.0617 44.639 48.195 45.4623 50.8111 46.7227L52.3355 47.4489C57.5205 49.9168 60.4445 52.4375 60.4445 58.1037C60.4445 64.209 56.1303 67.5551 50.3389 67.5551C44.6741 67.5551 41.4574 64.3779 39.6667 60.4449L44.4607 56.8877ZM22.576 57.0608C23.5318 58.9735 24.9844 60.4449 27.0735 60.4449C29.0719 60.4449 30.2223 59.5625 30.2223 56.1319V33.7773H36.5179V57.2128C36.5179 64.3209 32.8289 67.5551 27.4418 67.5551C22.5741 67.5551 19.0608 63.8691 17.629 60.4449L22.576 57.0608Z" fill="#000001"/>
</svg>
