<svg width="68" height="40" viewBox="0 0 68 40" fill="none" xmlns="http://www.w3.org/2000/svg">
<path d="M21.0904 40V0.782473H21.8974V6.95143C21.9927 6.67789 22.0807 6.38733 22.1608 6.08182C22.8348 2.39576 24.2563 0.0694266 25.8083 0.115375C27.6482 -0.0292767 29.1434 1.7661 30.022 6.08182C30.5811 8.76292 30.8888 11.7577 30.9194 14.8162C30.9499 17.8746 30.7024 20.908 30.1976 23.6629C29.379 28.4994 27.3571 30.904 25.1924 30.0208C24.5188 29.8698 23.8702 29.2765 23.3059 28.2949C22.7416 27.3133 22.2796 25.9748 21.962 24.4015V39.9983L21.0904 40ZM21.8974 14.6554L22.0782 19.2604C22.3971 24.5019 23.5727 27.5991 25.4184 28.1811C26.2851 28.5568 27.1745 28.1284 27.9349 26.9691C28.6952 25.8097 29.2795 23.9911 29.5882 21.8233C30.3061 17.3136 30.2531 12.2082 29.4462 7.80402C29.1167 5.86072 28.5563 4.25288 27.8496 3.22345C27.1429 2.19402 26.3282 1.79895 25.5288 2.09795C24.7784 2.24186 24.0636 2.99824 23.4838 4.26204C22.9039 5.52584 22.4878 7.23431 22.2931 9.15013C22.1213 10.9631 21.9892 12.8007 21.8974 14.6537V14.6554ZM47.3965 19.9854C47.2741 22.7466 46.7754 25.2967 45.9932 27.1615C45.211 29.0262 44.1986 30.0785 43.1441 30.1229C39.7599 30.5721 38.1718 24.6482 37.9194 17.8122C37.7439 14.0999 37.9725 10.3325 38.5785 6.94973C39.0003 4.62916 39.6915 2.72284 40.5518 1.50693C41.4121 0.291025 42.3969 -0.171328 43.3636 0.186849C44.2825 0.392754 45.1537 1.35528 45.8537 2.9382C46.5537 4.52112 47.0471 6.64427 47.2641 9.00718C47.4361 11.1597 47.5626 13.3356 47.6431 15.525H38.7554C38.5908 21.7229 39.8542 26.7057 41.645 27.9072C43.8755 29.3537 45.7819 26.8061 46.474 21.2158C46.6276 19.7812 46.9078 19.5786 47.4023 19.9854H47.3965ZM38.749 13.5407H46.6986C46.6489 6.93781 45.0892 2.13879 42.9736 2.08433C40.585 1.98223 38.8529 6.58895 38.749 13.5407ZM49.0395 20.13H49.8187C49.8473 21.6433 50.0338 23.1064 50.3575 24.3584C50.6812 25.6105 51.1296 26.6029 51.6534 27.2264C52.3112 28.0067 53.0272 28.386 53.7483 28.3359C54.4693 28.2858 55.1768 27.8077 55.8181 26.9371C56.1676 26.5222 56.4604 25.8345 56.6569 24.9668C56.8534 24.0991 56.9442 23.0933 56.9168 22.0854C56.937 21.1132 56.8363 20.1504 56.6301 19.3427C56.4239 18.535 56.1234 17.9266 55.7742 17.6097C54.9168 16.769 54.0053 16.3061 53.1318 15.5675C52.2229 14.8854 51.3341 14.0288 50.4727 13.0047C49.0653 11.194 48.9782 4.14179 50.5714 1.90905C51.3873 0.69553 52.3054 0.0398306 53.242 0.00178151C54.1787 -0.0362675 55.104 0.544544 55.9336 1.69122C56.9627 3.18879 57.5314 6.21285 57.3623 9.28116H56.6941C56.6941 9.19607 56.6334 9.12119 56.6334 9.0344C56.5508 3.41853 54.76 1.66229 52.8374 2.15581C52.2564 2.32599 51.7057 2.78887 51.1893 3.47299C50.8788 3.84673 50.6201 4.46561 50.4489 5.24397C50.2777 6.02234 50.2026 6.92171 50.2338 7.81763C50.2345 8.71422 50.3404 9.58828 50.5372 10.3196C50.734 11.051 51.0118 11.6037 51.3326 11.9019C52.1718 12.7137 53.0627 13.2344 53.931 13.8709L56.0292 15.3174C56.5061 15.73 56.9242 16.5145 57.2283 17.5671C57.5324 18.6197 57.7081 19.8908 57.7322 21.2123C57.9001 24.182 57.3255 27.1005 56.3094 28.4534C54.4746 31.1899 51.4527 30.4666 50.1066 27.0069C49.4178 25.1809 49.0337 22.7014 49.0414 20.1283L49.0395 20.13ZM67.6193 9.28286H66.8885C66.8885 9.02249 66.8497 8.77233 66.8388 8.57322C66.8271 7.12921 66.6274 5.73968 66.2733 4.63758C65.9191 3.53549 65.432 2.78784 64.8936 2.51999C63.878 1.7521 62.7946 1.88969 61.8116 2.9114C61.423 3.20461 61.0807 3.82157 60.8361 4.67004C60.5915 5.51851 60.4577 6.55289 60.4546 7.61853C60.4407 8.66488 60.5643 9.69179 60.8045 10.5256C61.0447 11.3594 61.3868 11.949 61.7729 12.1946L65.1131 14.4546C65.4743 14.6829 65.8301 14.9682 66.1783 15.3089C67.2435 16.3299 67.9666 18.9371 67.9989 21.9169C68.0148 23.3755 67.8631 24.8126 67.5635 26.0397C67.2639 27.2667 66.8306 28.2262 66.3204 28.7921C65.5451 29.7204 64.7048 30.2116 63.8534 30.2341C63.0019 30.2567 62.158 29.8101 61.3759 28.9231C60.7326 28.1919 60.1898 26.9588 59.8204 25.3898C59.4511 23.8207 59.2729 21.991 59.31 20.147H60.024C60.2926 23.5591 61.1815 26.4011 62.401 27.7455C63.6205 29.0899 65.0131 28.7597 66.1222 26.8674C66.4549 26.4112 66.7311 25.7132 66.9181 24.8561C67.1051 23.9989 67.1949 23.0185 67.177 22.0309C67.1936 21.0581 67.0893 20.0976 66.8801 19.2952C66.6709 18.4927 66.368 17.892 66.0176 17.5842C65.1602 16.7435 64.2487 16.2959 63.3752 15.542C62.4612 14.8704 61.5671 14.0235 60.6999 13.0081C59.3262 11.2263 59.2164 4.23198 60.7826 2.00095C61.6085 0.736496 62.5445 0.0571996 63.4996 0.0291671C64.4546 0.00113455 65.3962 0.625321 66.2326 1.84098C66.711 2.5936 67.096 3.69667 67.3408 5.01585C67.5857 6.33503 67.6797 7.8134 67.6115 9.27095L67.6193 9.28286ZM19.7625 29.4149C19.4748 29.7017 19.1573 29.7009 18.8698 29.4128C18.5823 29.1247 18.3448 28.5691 18.2021 27.851L15.3616 17.4957L14.9497 16.0491L11.6534 27.8663C11.519 28.5535 11.2943 29.0884 11.0213 29.3708C10.7483 29.6533 10.4456 29.6642 10.1698 29.4013L14.4164 14.3831L10.4655 0.813104C11.0517 0.25492 11.705 0.860755 12.031 2.25962L14.9749 12.7426L17.9361 2.30046C18.0715 1.625 18.2963 1.10423 18.5678 0.837212C18.8393 0.57019 19.1386 0.575541 19.4087 0.852247L17.8754 6.21456L15.7986 13.3399C15.741 13.4756 15.6949 13.6419 15.6633 13.8278C15.6317 14.0137 15.6154 14.2151 15.6154 14.4188C15.6154 14.6226 15.6317 14.824 15.6633 15.0099C15.6949 15.1958 15.741 15.3621 15.7986 15.4978L19.7541 29.4149H19.7625ZM37.7935 0.668455V2.71059C37.2378 2.61451 36.6807 2.82664 36.1581 3.33326C35.6354 3.83989 35.1589 4.62975 34.7592 5.65189C34.3595 6.67403 34.0456 7.90571 33.8377 9.26746C33.6297 10.6292 33.5324 12.0907 33.552 13.5577C33.552 18.3273 33.552 23.0968 33.552 27.8663V29.4881H32.7664V0.796086H33.5411V6.67574C34.4914 2.38725 35.9581 0.796088 37.7987 0.680367L37.7935 0.668455ZM0.00129137 14.1959L0.347322 9.69129C1.29761 0.784176 5.17109 -2.9223 7.83604 2.59487C9.39641 5.82485 9.78569 10.4009 9.70951 15.5573H0.918659C0.776632 24.7674 3.29762 30.3288 6.52229 27.4902C7.58491 26.4691 8.38478 24.1411 8.64818 21.2481C8.81861 19.8016 9.10009 19.5531 9.61526 19.9717C9.52934 21.735 9.29287 23.424 8.92365 24.9116C8.55442 26.3993 8.06205 27.6469 7.48355 28.5606C6.52781 29.9385 5.43127 30.4844 4.35073 30.1204C3.27018 29.7563 2.26097 28.501 1.4674 26.5338C0.682377 24.2075 0.208522 21.2668 0.116204 18.1611C0.116204 17.6505 0.0516465 17.174 0.00645594 16.7145C0.00215208 15.8557 0 15.0162 0 14.1959H0.00129137ZM0.929634 13.5731H8.8793C8.82959 6.89697 7.23113 2.16092 5.09943 2.11667C2.72628 2.03158 1.02841 6.66383 0.923824 13.5441L0.929634 13.5731Z" fill="black"/>
</svg>
