<svg width="68" height="76" viewBox="0 0 68 76" fill="none" xmlns="http://www.w3.org/2000/svg">
<path d="M23.3432 76C24.3943 75.4813 25.1304 74.2829 25.1304 72.8879V63.7345C25.1304 63.4006 25.1541 63.0531 25.191 62.7005C25.1703 62.7073 25.1511 62.7124 25.1304 62.7175C25.1304 62.7175 20.6957 62.7175 19.8087 62.7175C17.5913 62.7175 15.6696 61.7004 14.7826 59.6663C13.7478 57.4628 13.3043 53.7336 10.6435 51.6995C10.2 51.3605 10.4957 50.852 11.3826 50.852C12.2696 51.0215 14.1913 52.3776 15.3739 54.2421C16.7043 56.1067 18.0348 57.6323 20.4 57.6323C24.0764 57.6323 26.047 57.4204 27.2325 56.6915C28.6132 54.3371 30.5246 52.5471 32.5217 52.5471V52.5047C24.143 52.1962 18.7902 49.0027 16.2978 44.0717C10.88 44.1429 6.16287 44.7582 3.47096 45.2701C3.38522 44.7159 3.3113 44.1582 3.24774 43.5971C5.90417 43.0954 10.407 42.5004 15.5838 42.3868C15.4183 41.919 15.2749 41.4393 15.1537 40.9477C9.96348 40.646 5.48435 40.8816 3.05113 41.1121C3.02157 40.5494 2.98165 39.9883 2.97574 39.4188C5.41339 39.1899 9.7713 38.9611 14.8284 39.2306C14.7117 38.3831 14.6363 37.5169 14.6363 36.6151C14.6363 33.7335 15.5232 30.6824 17.1493 28.1398C16.4102 25.2582 15.3754 19.1559 17.445 16.9524C21.4363 16.9524 24.245 19.1559 25.5754 20.512C28.087 19.3238 30.8957 18.6457 34 18.6457C37.1043 18.6457 39.913 19.3238 42.2783 20.5103C43.6087 19.1543 46.4174 16.9507 50.4087 16.9507C52.6261 19.3238 51.4435 25.426 50.7043 28.1381C52.3304 30.6807 53.2174 33.5623 53.0696 36.6134C53.0696 37.4339 53.003 38.2254 52.907 39.0018C58.0794 38.7102 62.5556 38.9442 65.0346 39.1747C65.0317 39.7459 64.9858 40.3036 64.9592 40.8681C62.489 40.6341 57.9005 40.3934 52.6024 40.7172C52.4709 41.2867 52.3112 41.841 52.122 42.3784C57.3639 42.4563 61.9746 43.0377 64.7582 43.5463C64.6946 44.109 64.6207 44.6667 64.535 45.2193C61.7085 44.7006 56.8909 44.0938 51.4095 44.0633C48.9482 48.9417 43.693 52.1233 35.4783 52.4945V52.5471C39.3217 52.5471 42.8696 59.1578 42.8696 63.7345V72.8879C42.8696 74.2829 43.6057 75.4813 44.6568 76C58.1991 70.8606 68 56.2152 68 38.9865C68 17.4897 52.7488 0 34 0C15.2512 0 0 17.4897 0 38.9865C0 56.2152 9.80087 70.8606 23.3432 76Z" fill="black"/>
</svg>
