<svg width="68" height="76" viewBox="0 0 68 76" fill="none" xmlns="http://www.w3.org/2000/svg">
<path d="M33.2067 39.7064C30.9445 36.6495 29.3035 34.115 27.03 29.3424C23.1857 21.281 50.4107 13.9967 39.372 0C44.1569 9.6687 22.1975 15.6458 20.1575 23.6977C18.292 31.1036 33.1953 39.7064 33.2067 39.7064Z" fill="#F44336"/>
<path d="M33.7235 25.2139C33.2883 29.9941 38.7759 32.5419 38.9346 36.034C39.0615 38.8763 35.6547 41.2455 35.6547 41.2455C35.6547 41.2455 41.8382 40.2271 43.7671 35.8915C45.9091 31.0771 39.61 27.7807 40.2583 23.9258C40.8635 20.2437 53.9286 13.3945 53.9286 13.3945C53.9286 13.3945 34.705 14.4623 33.7235 25.2139Z" fill="#F44336"/>
<path d="M52.3238 40.0055C56.2995 39.2569 59.6519 41.3791 59.6519 43.8243C59.6519 49.336 50.5376 54.5456 50.5376 54.5456C50.5376 54.5456 64.6476 53.1358 64.6476 44.0865C64.6476 38.1018 57.7184 36.6065 52.3238 40.0055ZM45.6258 44.4513C45.6258 44.4513 50.0254 41.8237 51.1972 40.8377C40.4011 42.7585 15.7511 43.0169 15.7511 41.3487C15.7511 39.8117 23.7003 38.2367 23.7003 38.2367C23.7003 38.2367 6.08151 38.0239 6.08151 42.3804C6.08151 46.9212 29.1448 47.2461 45.6258 44.4513Z" fill="#1565C0"/>
<path d="M42.9193 48.5858C32.6989 51.4338 13.8742 50.5238 19.4502 46.6992C16.7348 46.6992 12.7092 48.5288 12.7092 50.2882C12.7092 53.8163 33.0684 56.5408 48.1372 51.3749L42.9193 48.5858Z" fill="#1565C0"/>
<path d="M21.9549 54.6045C18.2467 54.6045 15.8463 56.607 15.8463 58.0662C15.8463 62.6089 37.9689 63.0667 46.7341 58.4556L41.1626 55.355C34.6142 57.7679 18.1651 58.1003 21.9549 54.6045Z" fill="#1565C0"/>
<path d="M61.8369 62.0011C61.8369 60.2227 59.4456 59.3849 58.5888 58.984C63.6389 69.1923 8.0036 68.4 8.0036 62.3734C8.0036 61.0036 12.0995 59.6623 15.8848 60.2968L12.6661 58.7028C5.12267 57.711 0 60.4906 0 62.7325C0 73.1878 61.8369 72.6843 61.8369 62.0011Z" fill="#1565C0"/>
<path d="M68 65.748C58.6024 73.5282 34.7729 76.3629 10.8098 71.5561C34.7729 80.1114 67.8867 75.2932 68 65.748Z" fill="#1565C0"/>
</svg>
