<svg width="68" height="40" viewBox="0 0 68 40" fill="none" xmlns="http://www.w3.org/2000/svg">
<path d="M50.6472 2.86409L47.2628 0.0646155C47.1565 -0.0235901 47.0262 -0.0214895 46.9214 0.0709164C46.8165 0.163322 46.7514 0.329232 46.7514 0.509844L46.75 17.4201L43.629 14.8601C43.4987 14.753 43.3528 14.7004 43.2083 14.7004C43.0638 14.7004 42.9179 14.753 42.7875 14.8601H42.789L35.8374 20.5619C35.5767 20.774 35.4166 21.1689 35.4166 21.5931V33.0031C35.4166 33.4294 35.5767 33.8222 35.8374 34.0364L42.7904 39.7424C43.0496 39.9546 43.3712 39.9546 43.6305 39.7424L50.582 34.0364C50.8399 33.8243 51 33.4294 51 33.0031V3.75455C51 3.38493 50.864 3.04471 50.6472 2.86409ZM46.5601 30.3632L43.401 32.9569C43.2834 33.0535 43.1375 33.0535 43.0199 32.9569L39.8593 30.3632C39.7389 30.2666 39.6666 30.086 39.6666 29.8928V24.7055C39.6666 24.5123 39.7389 24.3338 39.8579 24.2351L43.0185 21.6435H43.017C43.0765 21.5952 43.1417 21.5721 43.2083 21.5721C43.2749 21.5721 43.34 21.5973 43.3995 21.6435L46.5587 24.2351C46.6777 24.3338 46.75 24.5144 46.75 24.7076V29.8949C46.75 30.086 46.6777 30.2666 46.5601 30.3632Z" fill="#37474F"/>
<path d="M24.3723 14.9565L17.4207 20.6583C17.1601 20.8705 17 21.2653 17 21.6916V33.1016C17 33.528 17.1601 33.9207 17.4207 34.1349L24.3737 39.841C24.633 40.0531 24.9546 40.0531 25.2138 39.841L32.1654 34.1349C32.4232 33.9207 32.5833 33.528 32.5833 33.1016V21.6916C32.5833 21.2653 32.4232 20.8726 32.1626 20.6583L25.2124 14.9565C25.0821 14.8494 24.9362 14.7969 24.7917 14.7969C24.6457 14.7969 24.5012 14.8494 24.3709 14.9565H24.3723ZM60.1389 25.2282L58.9801 26.1775C58.9362 26.2132 58.9107 26.2783 58.9107 26.3497V28.2524C58.9107 28.3238 58.9376 28.3889 58.9801 28.4246L60.1389 29.376C60.1828 29.4117 60.2352 29.4117 60.2792 29.376L61.438 28.4246C61.4805 28.3889 61.5074 28.3238 61.5074 28.2524V26.3497C61.5074 26.2783 61.4805 26.2132 61.4366 26.1775L60.2777 25.2282C60.2565 25.2093 60.2324 25.2009 60.2083 25.2009C60.1842 25.2009 60.1602 25.2093 60.1389 25.2282Z" fill="#388E3C"/>
<path d="M24.3723 14.9565L17 33.1016C17 33.528 17.1601 33.9207 17.4207 34.1349L24.3737 39.841C24.633 40.0531 24.9546 40.0531 25.2138 39.841L32.5833 21.6916C32.5833 21.2653 32.4232 20.8726 32.1626 20.6583L25.2124 14.9565C25.0821 14.8494 24.9362 14.7969 24.7917 14.7969C24.6457 14.7969 24.5012 14.8494 24.3709 14.9565" fill="#2E7D32"/>
<path d="M24.3723 14.9565L17.4207 20.6583C17.1601 20.8705 17 21.2653 17 21.6916L24.3723 39.841C24.6316 40.0531 24.9532 40.0531 25.2124 39.841L32.164 34.1349C32.4233 33.9207 32.5833 33.528 32.5833 33.1016L25.2124 14.9565C25.0821 14.8494 24.9362 14.7969 24.7917 14.7969C24.6457 14.7969 24.5012 14.8494 24.3709 14.9565" fill="#4CAF50"/>
<path d="M67.5792 20.5626L60.6291 14.8608C60.4987 14.7537 60.3528 14.7012 60.2083 14.7012C60.0638 14.7012 59.9179 14.7537 59.7876 14.8608H59.789L52.8374 20.5626C52.5782 20.7748 52.4167 21.178 52.4167 21.619V32.9828C52.4167 33.4218 52.5782 33.8271 52.8374 34.0392L59.7904 39.7453C60.0511 39.9595 60.3698 39.9595 60.6305 39.7453L63.8364 37.1138C64.1297 36.8723 64.1282 36.2485 63.8336 36.0091L56.8579 30.3661C56.7403 30.2674 56.6667 30.0847 56.6667 29.8872V24.7083C56.6667 24.5151 56.7375 24.3366 56.8508 24.2442L60.0171 21.6484H60.0157C60.0752 21.6001 60.1403 21.577 60.2069 21.577C60.2735 21.577 60.3387 21.6022 60.3982 21.6484L63.5644 24.2463C63.6777 24.3387 63.7486 24.5172 63.7486 24.7104V28.9359C63.7486 29.1165 63.8137 29.2845 63.92 29.3748C64.0262 29.463 64.1566 29.463 64.2628 29.3727L67.66 26.4472C67.8697 26.2666 68 25.9327 68 25.5715V21.6232C68 21.1801 67.8385 20.7748 67.5792 20.5626ZM15.1626 20.5626L8.21242 14.8608C8.08208 14.7537 7.93617 14.7012 7.79167 14.7012C7.64717 14.7012 7.50125 14.7537 7.37092 14.8608H7.37233L0.42075 20.5626C0.1615 20.7748 0 21.178 0 21.619V37.2965C0 37.4771 0.0651667 37.6451 0.171417 37.7354C0.277667 37.8236 0.408 37.8236 0.51425 37.7333L3.91142 34.8079C4.12108 34.6272 4.25 34.2933 4.25 33.9321V24.7062C4.25 24.513 4.32083 24.3345 4.43417 24.2421L7.60042 21.6463C7.65992 21.598 7.72508 21.5749 7.79167 21.5749C7.85825 21.5749 7.92342 21.6001 7.98292 21.6463L11.1492 24.2442C11.2625 24.3366 11.3333 24.5151 11.3333 24.7083V33.9342C11.3333 34.2954 11.4622 34.6293 11.6733 34.81L15.0705 37.7354C15.1767 37.8257 15.3071 37.8257 15.4133 37.7375C15.5182 37.6451 15.5833 37.4771 15.5833 37.2965V21.6211C15.5833 21.1801 15.4218 20.7748 15.1626 20.5626Z" fill="#37474F"/>
</svg>
