<svg width="68" height="76" viewBox="0 0 68 76" fill="none" xmlns="http://www.w3.org/2000/svg">
<path d="M39.5251 38.0004C39.5251 41.7933 37.0541 44.862 34.0001 44.862C30.946 44.862 28.4751 41.7933 28.4751 38.0004C28.4751 34.2074 30.946 31.1387 34.0001 31.1387C37.0541 31.1387 39.5251 34.2074 39.5251 38.0004Z" fill="#8BB7F0"/>
<path d="M34 45.3903C30.7199 45.3903 28.05 42.0756 28.05 38.0008C28.05 33.926 30.7199 30.6113 34 30.6113C37.2802 30.6113 39.95 33.926 39.95 38.0008C39.95 42.0756 37.2802 45.3903 34 45.3903ZM34 31.667C31.1874 31.667 28.9 34.5077 28.9 38.0008C28.9 41.494 31.1874 44.3347 34 44.3347C36.8127 44.3347 39.1 41.494 39.1 38.0008C39.1 34.5077 36.8127 31.667 34 31.667Z" fill="#4E7AB5"/>
<path d="M20.8029 75.4785C19.3486 75.4785 18.0243 75.0647 16.8657 74.2497C14.9277 72.8848 13.5881 70.5328 12.8826 67.2614C12.0624 63.4537 12.1601 58.3961 13.1648 52.6112C5.06262 49.1497 0.425018 43.8388 0.425018 38C0.425018 32.1602 5.06177 26.8503 13.164 23.3899C12.1593 17.6039 12.0607 12.5463 12.8809 8.73861C13.5864 5.46612 14.926 3.11414 16.8632 1.75025C18.0209 0.935296 19.346 0.521484 20.8004 0.521484C24.5302 0.521484 29.2077 3.40339 34.0017 8.64783C38.7957 3.40867 43.4716 0.528874 47.1971 0.528874C48.6515 0.528874 49.9758 0.942686 51.1343 1.75764C53.0698 3.12048 54.4102 5.46823 55.1157 8.7365C55.9368 12.5432 55.8382 17.6018 54.8327 23.3888C62.9366 26.8492 67.575 32.1602 67.575 38C67.575 43.8398 62.9366 49.1508 54.8327 52.6122C55.8374 58.3982 55.936 63.4558 55.1149 67.2624C54.4094 70.5318 53.0706 72.8795 51.1369 74.2423C49.9775 75.0573 48.6523 75.4711 47.1988 75.4711C43.4707 75.4711 38.7932 72.5913 34.0009 67.3543C29.2069 72.5976 24.5302 75.4785 20.8029 75.4785ZM16.4365 53.841C15.5941 58.8204 15.4998 63.0747 16.1679 66.1698C16.6286 68.3086 17.4267 69.7918 18.5428 70.5771C19.1828 71.0279 19.9436 71.257 20.8029 71.257C23.6878 71.257 27.4856 68.848 31.5308 64.4618C29.5035 61.9262 27.5247 59.0559 25.642 55.9206C22.3856 55.4814 19.2916 54.7826 16.4365 53.841ZM36.4701 64.4597C40.5144 68.8417 44.3131 71.2485 47.198 71.2496C48.0573 71.2496 48.8181 71.0205 49.4598 70.5698C50.5725 69.7865 51.3689 68.3065 51.8288 66.1709C52.4969 63.0736 52.4034 58.8204 51.561 53.842C48.7033 54.7837 45.6085 55.4825 42.353 55.9217C40.4711 59.0569 38.4948 61.9262 36.4701 64.4597ZM30.2311 56.3608C31.4653 58.2356 32.7284 59.9848 34 61.5757C35.2682 59.9859 36.5322 58.2367 37.7655 56.3608C36.4982 56.4358 35.2359 56.4738 34 56.4738C32.7633 56.4738 31.5002 56.4358 30.2311 56.3608ZM27.4967 51.9123C29.6174 52.1372 31.8045 52.2512 34 52.2512C36.1973 52.2512 38.3818 52.1372 40.4991 51.9134C41.7622 49.7134 42.9667 47.4079 44.081 45.057C45.1588 42.7821 46.1729 40.4079 47.096 37.9989C46.1754 35.5963 45.1622 33.2232 44.0819 30.943C42.9701 28.5974 41.7656 26.2919 40.4991 24.0866C38.3835 23.8628 36.199 23.7488 34 23.7488C31.8002 23.7488 29.6149 23.8628 27.5001 24.0877C26.2336 26.2897 25.0274 28.5953 23.9139 30.9441C22.8344 33.2232 21.8212 35.5963 20.8998 38.0021C21.8195 40.4026 22.8327 42.7757 23.9131 45.058C25.0215 47.3963 26.2259 49.7007 27.4967 51.9123ZM48.8674 43.0449C48.2673 44.4658 47.6451 45.8593 47.0101 47.1978C46.3701 48.5511 45.6892 49.9087 44.982 51.2473C46.9999 50.8609 48.9303 50.3658 50.7374 49.7694C50.2359 47.6063 49.6077 45.3504 48.8674 43.0449ZM17.2584 49.7683C19.0664 50.3637 20.9959 50.8598 23.0112 51.2462C22.2998 49.8992 21.6189 48.5406 20.9831 47.1978C20.3499 45.8603 19.7268 44.469 19.1276 43.0481C18.3906 45.343 17.7633 47.5968 17.2584 49.7683ZM50.8436 38C52.1424 41.5797 53.2007 45.1182 53.9954 48.5321C60.2871 45.7833 64.175 41.7729 64.175 38C64.175 34.2271 60.2871 30.2167 53.9954 27.4678C53.2024 30.8818 52.1433 34.4203 50.8436 38ZM14.0012 27.4699C7.71207 30.2178 3.82502 34.2282 3.82502 38C3.82502 41.7729 7.71207 45.7833 14.0029 48.5311C14.7968 45.1161 15.8551 41.5776 17.1522 38.0021C15.8542 34.4256 14.796 30.8871 14.0012 27.4699ZM17.2576 26.2317C17.7625 28.4 18.3898 30.6548 19.1276 32.954C19.726 31.5373 20.3482 30.145 20.984 28.8032C21.6232 27.4531 22.304 26.0955 23.0138 24.7538C20.9959 25.1391 19.0664 25.6352 17.2576 26.2317ZM44.9837 24.7527C45.6952 26.1008 46.376 27.4583 47.0118 28.8032C47.6459 30.1407 48.269 31.5331 48.8691 32.954C49.6077 30.6559 50.235 28.401 50.7399 26.2306C48.9294 25.6342 46.9999 25.138 44.9837 24.7527ZM20.8004 4.74406C19.941 4.74406 19.1811 4.97208 18.5419 5.42389C17.4267 6.20929 16.6277 7.69247 16.1662 9.8312C15.4989 12.9295 15.5924 17.1827 16.4356 22.1601C19.2916 21.2184 22.3873 20.5185 25.6445 20.0794C27.529 16.9431 29.5078 14.0749 31.5325 11.5413C27.4865 7.15304 23.6861 4.74406 20.8004 4.74406ZM42.3538 20.0783C45.6093 20.5175 48.7042 21.2163 51.5619 22.158C52.4051 17.1795 52.4994 12.9253 51.8305 9.82804C51.3698 7.69353 50.5725 6.21351 49.459 5.43023C48.8181 4.97947 48.0573 4.75039 47.1971 4.75039C44.3131 4.75039 40.5161 7.15831 36.471 11.5413C38.494 14.0738 40.4711 16.9431 42.3538 20.0783ZM34 19.5262C35.2359 19.5262 36.4982 19.5642 37.7664 19.6392C36.5339 17.7665 35.2708 16.0183 34.0017 14.4264C32.7293 16.0204 31.467 17.7686 30.2345 19.6392C31.5019 19.5642 32.7641 19.5262 34 19.5262Z" fill="#8BB7F0"/>
<path d="M20.8004 1.04931C24.6203 1.04931 29.2969 4.12123 34.0025 9.35406C38.7073 4.12545 43.3815 1.0567 47.198 1.0567C48.5775 1.0567 49.8321 1.44729 50.926 2.21685C52.7586 3.50685 54.0303 5.74587 54.7052 8.87374C55.6206 13.0087 55.4285 18.1001 54.3363 23.7372C62.175 26.9896 67.15 32.1211 67.15 38C67.15 43.8789 62.175 49.0104 54.3354 52.2639C55.4753 58.3581 55.6665 63.5867 54.7043 67.1263C54.0294 70.2531 52.7587 72.4932 50.9278 73.7831C49.8321 74.5538 48.8368 74.9475 47.4581 74.9475C47.4572 74.9475 47.1045 74.9475 47.1036 74.9475C43.2854 74.9475 38.7039 71.8756 34 66.6491C29.2953 71.8809 24.6203 74.9507 20.8021 74.9507C19.4225 74.9507 18.1679 74.5601 17.074 73.7905C15.2397 72.4974 13.9672 70.2552 13.2932 67.1252C12.2817 63.2014 12.4857 58.0435 13.6621 52.2628C5.8242 49.0093 0.85 43.8789 0.85 38C0.85 32.1222 5.8242 26.9907 13.6612 23.7372C13.0773 20.508 12.7041 17.51 12.6914 14.7758C12.6812 12.616 12.9183 10.6071 13.2923 8.87479C13.9672 5.74376 15.2388 3.50157 17.0731 2.20946C18.1662 1.43884 19.4208 1.04931 20.8004 1.04931ZM16.1143 22.8135C19.0698 21.8054 22.3516 21.0432 25.8749 20.5787C27.8996 17.1901 30.0186 14.1435 32.153 11.5171C28.0118 6.92924 23.9794 4.21518 20.8004 4.21518C19.8662 4.21518 19.0366 4.46643 18.332 4.96364C17.1139 5.82187 16.2477 7.41273 15.7556 9.69397C15.0263 13.0741 15.1921 17.643 16.1143 22.8135ZM51.8832 22.8125C52.8054 17.6419 52.9712 13.072 52.2419 9.69186C51.7506 7.41484 50.8844 5.82715 49.6689 4.97103C48.9634 4.47382 48.1313 4.22257 47.198 4.22257C44.0215 4.22257 39.9917 6.93347 35.8513 11.5171C37.9848 14.1435 40.1013 17.1901 42.1243 20.5777C45.6459 21.0421 48.9277 21.8043 51.8832 22.8125ZM29.3055 20.2293C30.8372 20.1163 32.3731 20.0182 33.9703 20.0182C35.5674 20.0182 37.162 20.1174 38.6937 20.2293C37.1569 17.8235 35.5793 15.6256 34.0009 13.6801C32.4224 15.6256 30.844 17.8235 29.3055 20.2293ZM34 52.779C36.3469 52.779 38.5934 52.6513 40.7303 52.418C42.0215 50.1832 43.2701 47.8101 44.4465 45.3251C45.5966 42.8982 46.637 40.4417 47.566 38C46.637 35.5583 45.5966 33.1029 44.4474 30.677C43.2701 28.191 42.0223 25.8189 40.7303 23.5841C38.5943 23.3487 36.3477 23.221 34 23.221C31.6523 23.221 29.4049 23.3487 27.268 23.5831C25.9752 25.8179 24.7257 28.191 23.5484 30.6759C22.3992 33.1029 21.3588 35.5594 20.4298 38.0011C21.3588 40.4428 22.3983 42.8982 23.5475 45.3241C24.7248 47.809 25.9735 50.1821 27.2655 52.4169C29.4032 52.6513 31.6515 52.779 34 52.779ZM48.9141 34.2134C49.8704 31.3537 50.6617 28.5457 51.2652 25.8601C49.0952 25.119 46.6982 24.5068 44.1014 24.0581C44.9752 25.6701 45.8261 27.3412 46.6446 29.0703C47.4555 30.7794 48.2095 32.498 48.9141 34.2134ZM19.0817 34.2145C19.7855 32.499 20.5403 30.7805 21.3495 29.0703C22.1689 27.3412 23.0206 25.6711 23.8952 24.0592C21.2985 24.5068 18.9015 25.1201 16.7314 25.8612C17.3349 28.5467 18.1263 31.3537 19.0817 34.2145ZM53.7098 49.213C60.5744 46.3248 64.6 42.0811 64.6 38C64.6 33.9189 60.5744 29.6752 53.7098 26.787C52.8998 30.3814 51.7812 34.1585 50.3778 37.9989C51.7812 41.8404 52.8998 45.6175 53.7098 49.213ZM14.2885 49.212C15.0977 45.6186 16.2155 41.8415 17.6188 38.0021C16.2155 34.1617 15.0969 30.3835 14.2877 26.7891C7.4239 29.6773 3.4 33.9199 3.4 38C3.4 42.0811 7.42475 46.3237 14.2885 49.212ZM44.1014 51.9419C46.6982 51.4943 49.0952 50.882 51.2652 50.1399C50.6609 47.4543 49.8695 44.6463 48.9141 41.7855C48.2095 43.501 47.4547 45.2195 46.6446 46.9297C45.8261 48.6588 44.9752 50.3299 44.1014 51.9419ZM23.8927 51.9408C23.0189 50.3289 22.168 48.6588 21.3486 46.9307C20.5394 45.2217 19.7855 43.5041 19.0817 41.7898C18.1263 44.6484 17.3358 47.4554 16.7323 50.1399C18.9015 50.8799 21.2976 51.4922 23.8927 51.9408ZM20.8029 71.7838C23.9811 71.7838 28.0118 69.0707 32.1521 64.485C30.0161 61.8575 27.8979 58.8099 25.8723 55.4202C22.3508 54.9568 19.0706 54.1946 16.116 53.1865C15.1946 58.357 15.0289 62.9259 15.7573 66.306C16.2486 68.5862 17.1156 70.1771 18.3328 71.0353C19.0366 71.5325 19.8688 71.7838 20.8029 71.7838ZM47.198 71.7774C48.1321 71.7774 48.9625 71.5262 49.6689 71.029C50.8844 70.1728 51.7489 68.5852 52.2393 66.3071C52.9686 62.9259 52.8029 58.357 51.8815 53.1875C48.926 54.1957 45.645 54.9579 42.1226 55.4213C40.0996 58.8099 37.9823 61.8565 35.8488 64.484C39.9891 69.0655 44.0198 71.7764 47.198 71.7774ZM34 62.322C35.5785 60.3754 37.1561 58.1765 38.6937 55.7707C37.1629 55.8837 35.6686 56.1222 34.0706 56.1222C32.4717 56.1222 30.8346 55.8837 29.3029 55.7707C30.8414 58.1776 32.4207 60.3765 34 62.322ZM20.4986 0.0728397C18.9694 0.0728397 17.8764 0.429647 16.6541 1.29C14.6149 2.72673 13.2073 5.18638 12.4712 8.60138C11.6552 12.388 11.7258 17.3653 12.6718 23.0436C4.60615 26.5874 0 32.0092 0 38C0 43.9918 4.607 49.4126 12.6727 52.9564C11.7266 58.6347 11.6561 63.612 12.4729 67.3986C13.2082 70.8115 14.6149 73.2712 16.6557 74.71C17.8797 75.5714 19.3503 75.9377 20.8786 75.9377C24.6925 75.9377 29.1686 73.2617 34.0009 68.0563C38.8323 73.2564 43.384 75.9989 47.1971 76C48.7263 76 50.122 75.564 51.346 74.7026C53.3834 73.268 54.7893 70.8115 55.5245 67.4007C56.3414 63.6131 56.2708 58.6357 55.3248 52.9585C63.3921 49.4136 68 43.9918 68 38C68 32.0082 63.393 26.5864 55.3256 23.0426C56.2725 17.3632 56.3422 12.3859 55.5254 8.59927C54.7893 5.18849 53.3826 2.73201 51.3443 1.29739C50.1211 0.437036 48.7254 0 47.1971 0C43.3849 0 38.834 2.74362 34.0017 7.94583C29.1686 2.73939 24.5956 0.0696725 20.7808 0.0696725L20.4986 0.0728397ZM16.762 21.5077C16.3693 19.0544 16.1058 16.7552 16.0914 14.7389C16.0786 12.9232 16.2792 11.3429 16.5758 9.96633C17.0068 7.96905 17.7387 6.59461 18.751 5.88099C19.3256 5.47562 20.026 5.20116 20.8106 5.20116C23.5144 5.20116 27.0725 7.50035 30.9111 11.5709C29.0233 13.9704 27.1779 16.6581 25.415 19.578C22.3678 20.0002 19.4625 20.6473 16.762 21.5077ZM37.0923 11.573C40.9301 7.50562 44.4967 5.27822 47.1971 5.27822C47.9825 5.27822 48.6736 5.48407 49.249 5.88943C50.2597 6.60094 50.9907 7.97222 51.4208 9.96527C52.1637 12.9401 52.0676 16.8945 51.2355 21.5066C48.535 20.6473 45.6306 19.9992 42.5842 19.579C40.8221 16.6602 38.9785 13.9725 37.0923 11.573ZM31.1721 19.0618C32.1037 17.6894 33.0497 16.391 34.0009 15.1791C34.952 16.391 35.8972 17.6894 36.828 19.0618C35.8768 19.0195 34.9308 18.9984 34 18.9984C33.0693 18.9984 32.1241 19.0195 31.1721 19.0618ZM27.7313 24.5933C29.7755 24.3833 31.8818 24.2334 34 24.2334C36.1174 24.2334 38.2237 24.3833 40.2671 24.5933C41.4843 26.7247 42.6437 28.9489 43.7147 31.2112C44.7534 33.4048 45.7317 35.686 46.6242 37.9989C45.7309 40.3129 44.7525 42.5952 43.7138 44.7888C42.642 47.0521 41.4834 49.2753 40.2662 51.4067C38.2237 51.6167 36.1174 51.8986 34 51.8986C31.881 51.8986 29.7738 51.6157 27.7287 51.4056C26.5107 49.2753 25.3513 47.0511 24.2794 44.7878C23.2407 42.5952 22.2632 40.314 21.3707 38C22.2632 35.686 23.2416 33.4037 24.2803 31.2101C25.353 28.9479 26.5132 26.7236 27.7313 24.5933ZM48.8087 31.6915C48.3421 30.6168 47.8635 29.5612 47.3781 28.5351C46.8936 27.5122 46.3862 26.485 45.8609 25.4642C47.3688 25.783 48.8232 26.1641 50.2078 26.6043C49.8109 28.2575 49.3425 29.9592 48.8087 31.6915ZM17.7888 26.6043C19.1735 26.1641 20.6278 25.783 22.1357 25.4642C21.6096 26.485 21.1021 27.5122 20.6176 28.534C20.1323 29.5601 19.6537 30.6158 19.1871 31.6904C18.6533 29.9602 18.1858 28.2585 17.7888 26.6043ZM51.3103 37.9989C52.513 34.661 53.5092 31.3568 54.2768 28.154C60.1443 30.8132 63.75 34.5385 63.75 38C63.75 41.4615 60.1443 45.1868 54.2768 47.846C53.5084 44.6421 52.513 41.3369 51.3103 37.9989ZM13.7207 47.8449C7.85485 45.1858 4.25 41.4604 4.25 38C4.25 34.5396 7.85485 30.8142 13.7199 28.1551C14.4874 31.3589 15.4827 34.6631 16.6855 38.0011C15.4836 41.3379 14.4883 44.6421 13.7207 47.8449ZM45.8601 50.5368C46.3854 49.515 46.8937 48.4878 47.3773 47.466C47.8635 46.4399 48.3421 45.3832 48.8087 44.3085C49.3425 46.0408 49.81 47.7436 50.2078 49.3978C48.8223 49.8359 47.368 50.218 45.8601 50.5368ZM17.7897 49.3957C18.1866 47.7425 18.6541 46.0419 19.1871 44.3117C19.6529 45.3853 20.1314 46.4409 20.6167 47.466C21.1004 48.4878 21.6079 49.5139 22.134 50.5358C20.627 50.2159 19.1735 49.8348 17.7897 49.3957ZM20.8029 70.7281C20.0175 70.7281 19.3273 70.5223 18.7519 70.1169C17.7404 69.4033 17.0085 68.0299 16.5784 66.0326C15.8721 63.0293 15.952 59.0738 16.7637 54.4913C19.4633 55.3506 22.3669 55.9987 25.4125 56.4189C27.1762 59.3388 29.0216 62.0275 30.9103 64.4291C27.0725 68.5007 23.5051 70.7292 20.8029 70.7281ZM42.5833 56.421C45.6297 55.9998 48.5342 55.3527 51.2346 54.4934C52.1739 59.4971 52.2478 63.4853 51.4191 66.0337C50.9898 68.0278 50.2597 69.3991 49.2499 70.1095C48.6736 70.5149 47.9834 70.7207 47.1988 70.7207V71.7764L47.198 70.7207C44.495 70.7207 40.9275 68.4933 37.0906 64.428C38.9776 62.0286 40.8213 59.3409 42.5833 56.421ZM34 60.823C33.048 59.6111 32.1011 58.3116 31.1695 56.9382C32.1215 56.9805 33.0684 57.0016 34 57.0016C34.9308 57.0016 35.8768 56.9805 36.828 56.9382C35.8972 58.3116 34.9512 59.6111 34 60.823Z" fill="#4E7AB5"/>
</svg>
